<?xml version="1.0" encoding="iso-8859-1"?>
<!-- Uploaded to: SVG Repo, www.svgrepo.com, Generator: SVG Repo Mixer Tools -->
<svg height="800px" width="800px" version="1.1" id="Layer_1" xmlns="http://www.w3.org/2000/svg" xmlns:xlink="http://www.w3.org/1999/xlink" 
	 viewBox="0 0 511.968 511.968" xml:space="preserve">
<path style="fill:#CCD1D9;" d="M256.774,123.305L0,214.049v42.686l104.126,174.582c38.146-40.746,92.416-66.244,152.647-66.244
	c59.3,0,112.828,24.717,150.873,64.369l104.322-174.925v-42.686L256.774,123.305z"/>
<path style="fill:#E6E9ED;" d="M256.774,80.651c-106.158,0-199.996,52.716-256.773,133.397l104.125,174.616
	c38.146-40.779,92.416-66.246,152.647-66.246c59.3,0,112.828,24.686,150.873,64.371l104.322-174.958
	C455.035,132.399,361.947,80.651,256.774,80.651z"/>
<path id="SVGCleanerId_0" style="fill:#DA4453;" d="M202.651,239.329c-11.733,0-21.327-9.593-21.327-21.312v-21.342
	c0-11.719,9.602-21.343,21.327-21.343h106.673c11.719,0,21.312,9.624,21.312,21.343v21.342c0,11.719-9.594,21.312-21.312,21.312
	H202.651z"/>
<g>
	<path id="SVGCleanerId_0_1_" style="fill:#DA4453;" d="M202.651,239.329c-11.733,0-21.327-9.593-21.327-21.312v-21.342
		c0-11.719,9.602-21.343,21.327-21.343h106.673c11.719,0,21.312,9.624,21.312,21.343v21.342c0,11.719-9.594,21.312-21.312,21.312
		H202.651z"/>
</g>
<path id="SVGCleanerId_1" style="fill:#ED5564;" d="M287.982,260.672c0,11.719-9.594,21.342-21.334,21.342H245.32
	c-11.733,0-21.334-9.623-21.334-21.342v-106.65c0-11.749,9.601-21.342,21.334-21.342h21.328c11.74,0,21.334,9.593,21.334,21.342
	V260.672z"/>
<g>
	<path id="SVGCleanerId_1_1_" style="fill:#ED5564;" d="M287.982,260.672c0,11.719-9.594,21.342-21.334,21.342H245.32
		c-11.733,0-21.334-9.623-21.334-21.342v-106.65c0-11.749,9.601-21.342,21.334-21.342h21.328c11.74,0,21.334,9.593,21.334,21.342
		V260.672z"/>
</g>
</svg>